<svg width="17" height="24" xmlns="http://www.w3.org/2000/svg"><defs><path id="a" d="M0 0h24v24H0z"/></defs><path d="M15.068 1.967h-3.477V1.18c0-.63-.502-1.18-1.16-1.18H6.569C5.911 0 5.41.511 5.41 1.18v.787H1.932C.85 1.967 0 2.833 0 3.934v1.574a.39.39 0 0 0 .386.394H.85L1.932 22.82A1.24 1.24 0 0 0 3.168 24H13.87a1.24 1.24 0 0 0 1.237-1.18L16.15 5.902h.464c.231 0 .386-.158.386-.394V3.934c0-1.101-.85-1.967-1.932-1.967zm-1.12 20.774c0 .04-.039.079-.078.079H3.207c-.039 0-.077-.04-.077-.079L2.01 5.901h12.98l-1.042 16.84zm1.893-18.02H1.159v-.787c0-.432.348-.786.773-.786h4.636V1.18h3.864v1.968h4.636c.425 0 .773.354.773.786v.787zm-3.4 16.958a.782.782 0 0 0 .773-.787V8.695a.782.782 0 0 0-.773-.787.782.782 0 0 0-.773.787v12.197c0 .433.348.787.773.787zm-7.727 0a.782.782 0 0 0 .772-.787V8.695a.782.782 0 0 0-.772-.787.782.782 0 0 0-.773.787v12.197c0 .433.348.787.773.787zm3.863-.04a.782.782 0 0 0 .773-.787V8.656a.782.782 0 0 0-.773-.787.782.782 0 0 0-.772.787v12.196c0 .433.347.787.772.787z" fill="#333" fill-rule="nonzero"/></svg>