<?xml version="1.0" encoding="UTF-8"?>
<svg width="115px" height="48px" viewBox="0 0 115 48" version="1.1" xmlns="http://www.w3.org/2000/svg" xmlns:xlink="http://www.w3.org/1999/xlink">
    <!-- Generator: Sketch 49.2 (51160) - http://www.bohemiancoding.com/sketch -->
    <title>fc_logo_2018--column-white</title>
    <desc>Created with Sketch.</desc>
    <defs></defs>
    <g id="UI-Design" stroke="none" stroke-width="1" fill="none" fill-rule="evenodd">
        <g id="FCLite---ds---Category-page---UI-Design" transform="translate(-311.000000, -44.000000)" fill="#FFFFFF" fill-rule="nonzero">
            <g id="fc_logo_2018--column-white" transform="translate(311.000000, 44.000000)">
                <g id="Group-2-Copy-5" transform="translate(0.465310, 0.000000)">
                    <g id="Group-5-Copy-12" transform="translate(64.355768, 0.000000)">
                        <path d="M33.1,3.1 C31.85,3.1 31.85,5.05 33.1,5.05 C39.25,5.05 41.25,5.05 47.4,5.05 C46.65,8.5 45.85,12 45.1,15.45 C39.95,15.45 37.5,15.45 32.35,15.45 C30.65,10.65 29,5.8 27.35,1 C27.2,0.6 26.9,0.3 26.45,0.3 L20.5,0.3 C19.3,0.3 19.3,2.25 20.5,2.25 L25.75,2.25 C27.4,7.05 29.1,11.9 30.75,16.7 C31.3,18.05 31.9,19.45 32.45,20.8 C32.6,21.2 32.9,21.5 33.35,21.5 C38,21.5 39.9,21.5 44.55,21.5 C45.75,21.5 45.75,19.55 44.55,19.55 C40.1,19.55 38.4,19.55 33.95,19.55 C33.65,18.85 33.35,18.1 33.05,17.4 C38.2,17.4 40.65,17.4 45.8,17.4 C46.2,17.4 46.6,17.1 46.7,16.7 C47.6,12.6 48.55,8.45 49.45,4.35 C49.6,3.75 49.15,3.1 48.55,3.1 C42.05,3.1 39.65,3.1 33.1,3.1 Z" id="Shape"></path>
                        <path d="M11.05,19.6 L28,19.6 C28.9,19.6 29.3,20.05 29.3,20.6 C29.3,21.15 28.9,21.6 28,21.6 L11.05,21.6 C10.15,21.6 9.8,21.15 9.8,20.6 C9.8,20.05 10.15,19.6 11.05,19.6 Z" id="Path-Copy"></path>
                        <path d="M25.95,15.7 L18.25,15.7 C17.75,15.7 17.3,15.25 17.3,14.75 C17.3,14.25 17.75,13.8 18.25,13.8 L25.95,13.8 C26.45,13.8 26.9,14.25 26.9,14.75 C26.9,15.25 26.45,15.7 25.95,15.7 Z" id="Path-Copy-2"></path>
                        <path d="M21.2,15.7 L13.5,15.7 C13,15.7 12.55,15.25 12.55,14.75 C12.55,14.25 13,13.8 13.5,13.8 L21.2,13.8 C21.7,13.8 22.15,14.25 22.15,14.75 C22.15,15.25 21.7,15.7 21.2,15.7 Z" id="Path-Copy-2_1_"></path>
                        <path d="M10.45,7.8 L23,7.8 C23.9,7.8 24.3,8.25 24.3,8.75 C24.3,9.25 23.95,9.7 23,9.7 L10.45,9.7 C9.55,9.75 9.05,9.3 9.05,8.75 C9.05,8.25 9.5,7.8 10.45,7.8 Z" id="Path-Copy-3"></path>
                        <path d="M1.3,19.6 L18.25,19.6 C19.15,19.6 19.55,20.05 19.55,20.6 C19.55,21.15 19.15,21.6 18.25,21.6 L1.3,21.6 C0.4,21.6 0.05,21.15 0.05,20.6 C0.05,20.05 0.4,19.6 1.3,19.6 Z" id="Path-Copy_1_"></path>
                        <path d="M3.25,7.8 L15.8,7.8 C16.7,7.8 17.1,8.25 17.1,8.75 C17.1,9.25 16.75,9.7 15.8,9.7 L3.25,9.7 C2.35,9.75 1.85,9.3 1.85,8.75 C1.85,8.25 2.3,7.8 3.25,7.8 Z" id="Path-Copy-3_1_"></path>
                    </g>
                    <path d="M0.2,21.55 L2.25,21.55 C2.75,21.55 3.15,21.2 3.25,20.75 L5.1,11.25 C5.2,10.8 5.6,10.45 6.1,10.45 L10.9,10.45 C11.15,10.45 11.35,10.3 11.4,10.05 L11.7,8.6 C11.75,8.3 11.5,7.95 11.2,7.95 L6.95,7.95 C6.3,7.95 5.85,7.45 5.95,6.85 L6.6,3.6 C6.7,3.15 7.1,2.8 7.6,2.8 L13.55,2.8 C13.8,2.8 14,2.65 14.05,2.4 L14.35,0.95 C14.4,0.65 14.15,0.35 13.85,0.35 L4.85,0.35 C4.6,0.35 4.4,0.5 4.35,0.75 L0.2,21.55 Z M11.65,21.55 L14.1,21.55 C14.35,21.55 14.55,21.4 14.6,21.15 L16.05,13.5 C16.8,11.45 18.4,10.5 19.6,10.5 C19.9,10.5 20.2,10.5 20.45,10.6 C20.7,10.65 20.95,10.5 21,10.3 L21.65,8.65 C21.75,8.3 21.55,7.95 21.2,7.95 L20.5,7.95 C18.9,7.95 17.8,8.25 16.8,9.9 L16.65,10.85 L17.1,8.5 C17.15,8.2 16.9,7.95 16.6,7.95 L14.75,7.95 C14.5,7.95 14.3,8.1 14.25,8.35 L11.65,21.55 Z M39.1,12.5 C39.1,12.4 39.15,12.3 39.25,12.25 C40.55,10.95 41.5,10.4 42.35,10.4 C43.45,10.4 44,10.95 44,12.1 C44,12.5 43.9,12.9 43.8,13.5 L42.2,21.55 L44.65,21.55 C44.9,21.55 45.1,21.4 45.15,21.15 L46.75,13.15 C46.9,12.45 46.95,11.9 46.95,11.3 C46.95,9.15 46.05,7.95 43.85,7.95 C42.2,7.95 41.25,8.25 39.6,9.9 L39.9,8.45 C39.9,8.15 39.7,7.9 39.4,7.9 L37.55,7.9 C37.3,7.9 37.1,8.05 37.05,8.3 L34.4,21.55 L36.85,21.55 C37.1,21.55 37.3,21.4 37.35,21.15 L39.1,12.5 Z M49.85,16.75 C49.75,17.3 49.7,17.8 49.7,18.3 C49.7,20.15 50.65,21.55 53.1,21.55 C54.05,21.55 54.85,21.35 55.45,21.1 C55.7,21 55.8,20.75 55.75,20.5 L55.45,19.45 C55.4,19.15 55.1,19 54.8,19.1 C54.55,19.2 54.35,19.25 54.1,19.25 C53,19.25 52.6,18.75 52.6,17.8 C52.6,17.45 52.65,17.2 52.7,16.85 L54.05,10.25 L56.85,10.25 C57.1,10.25 57.3,10.1 57.35,9.85 L57.6,8.55 C57.65,8.25 57.4,7.95 57.1,7.95 L54.55,7.95 L55.15,4.95 C55.2,4.65 54.95,4.35 54.65,4.35 L53.25,4.35 C53.05,4.35 52.85,4.5 52.75,4.7 L51.8,7.9 L50.2,7.9 C49.95,7.9 49.8,8.1 49.75,8.3 L49.4,10.2 L51.25,10.2 L49.85,16.75 Z M82.65,47.7 L85.1,47.7 C85.35,47.7 85.55,47.55 85.6,47.3 L87.05,39.65 C87.8,37.6 89.4,36.65 90.6,36.65 C90.9,36.65 91.2,36.65 91.45,36.75 C91.7,36.8 91.95,36.65 92,36.45 L92.65,34.8 C92.75,34.45 92.55,34.1 92.2,34.1 L91.5,34.1 C89.9,34.1 88.8,34.4 87.8,36.05 L87.65,37 L88.1,34.65 C88.15,34.35 87.9,34.1 87.6,34.1 L85.75,34.1 C85.5,34.1 85.3,34.25 85.25,34.5 L82.65,47.7 Z" id="Front"></path>
                </g>
                <path d="M0.65,39.25 C0.65,44.4 3.45,47.7 8.05,47.7 C10.45,47.7 12.35,46.65 13.7,45.55 C13.9,45.4 13.95,45.1 13.8,44.9 L12.9,43.55 C12.75,43.3 12.4,43.25 12.2,43.45 C11.15,44.25 10,44.8 8.75,44.8 C5.45,44.8 4.1,42.5 4.1,39 C4.1,34.25 7,29.35 11.1,29.35 C12.25,29.35 13.15,29.95 13.85,30.95 C14,31.2 14.35,31.25 14.55,31.05 L16.05,29.85 C16.25,29.7 16.3,29.4 16.15,29.2 C15.05,27.55 13.4,26.45 11.2,26.45 C5.1,26.4 0.65,32.5 0.65,39.25 Z M28.8,47.7 L31.25,47.7 C31.5,47.7 31.7,47.55 31.75,47.3 L33.45,38.6 C34.75,37.15 35.9,36.55 36.6,36.55 C37.65,36.55 38.2,37.1 38.2,38.25 C38.2,38.65 38.1,39.05 38,39.65 L36.4,47.7 L38.85,47.7 C39.1,47.7 39.3,47.55 39.35,47.3 L41.05,38.6 C42.4,37.15 43.5,36.55 44.2,36.55 C45.25,36.55 45.8,37.1 45.8,38.25 C45.8,38.65 45.7,39.05 45.6,39.65 L44,47.7 L46.5,47.7 C46.75,47.7 46.95,47.55 47,47.3 L48.6,39.3 C48.75,38.6 48.8,38.05 48.8,37.45 C48.8,35.3 47.85,34.1 45.7,34.1 C44.3,34.1 42.7,35.1 41.15,36.55 C40.9,35.1 40.15,34.1 38.1,34.1 C36.7,34.1 35.05,35.1 33.7,36.3 L33.8,34.95 C33.8,34.65 33.6,34.4 33.3,34.4 L31.9,34.4 C31.65,34.4 31.45,34.55 31.4,34.8 L28.8,47.7 Z M49.3,47.7 L51.75,47.7 C52,47.7 52.2,47.55 52.25,47.3 L53.95,38.6 C55.25,37.15 56.4,36.55 57.1,36.55 C58.15,36.55 58.7,37.1 58.7,38.25 C58.7,38.65 58.6,39.05 58.5,39.65 L56.9,47.7 L59.35,47.7 C59.6,47.7 59.8,47.55 59.85,47.3 L61.55,38.6 C62.9,37.15 64,36.55 64.7,36.55 C65.75,36.55 66.3,37.1 66.3,38.25 C66.3,38.65 66.2,39.05 66.1,39.65 L64.5,47.7 L67,47.7 C67.25,47.7 67.45,47.55 67.5,47.3 L69.1,39.3 C69.25,38.6 69.3,38.05 69.3,37.45 C69.3,35.3 68.35,34.1 66.2,34.1 C64.8,34.1 63.2,35.1 61.65,36.55 C61.4,35.1 60.65,34.1 58.6,34.1 C57.2,34.1 55.55,35.1 54.2,36.3 L54.3,34.95 C54.3,34.65 54.1,34.4 53.8,34.4 L52.4,34.4 C52.15,34.4 51.95,34.55 51.9,34.8 L49.3,47.7 Z M71.1,42.2 C71.1,45.7 73.2,47.7 76.25,47.7 C77.85,47.7 79.2,47.2 80.2,46.6 C80.45,46.45 80.5,46.15 80.4,45.9 L79.85,44.95 C79.7,44.7 79.4,44.65 79.15,44.8 C78.5,45.2 77.7,45.55 77,45.55 C75.2,45.55 73.75,44.55 73.8,42.15 C73.8,41.9 74.05,41.65 74.3,41.65 L81.3,41.65 C81.5,41.65 81.7,41.5 81.75,41.3 C81.95,40.75 82.15,39.8 82.15,38.9 C82.15,36.2 81.05,34.1 78.1,34.1 C74.75,34.1 71.1,37.35 71.1,42.2 Z M74.75,39.8 C74.4,39.8 74.15,39.45 74.3,39.1 C75,37.3 76.4,36.25 77.75,36.25 C79.3,36.25 79.85,37.4 79.85,38.65 C79.85,38.9 79.85,39.15 79.8,39.35 C79.75,39.6 79.55,39.75 79.3,39.75 L74.75,39.75 L74.75,39.8 Z M103.3,42.2 C103.3,45.7 105.4,47.7 108.45,47.7 C110.05,47.7 111.4,47.2 112.4,46.6 C112.65,46.45 112.7,46.15 112.6,45.9 L112.05,44.95 C111.9,44.7 111.6,44.65 111.35,44.8 C110.7,45.2 109.9,45.55 109.2,45.55 C107.4,45.55 105.95,44.55 106,42.15 C106,41.9 106.25,41.65 106.5,41.65 L113.5,41.65 C113.7,41.65 113.9,41.5 113.95,41.3 C114.15,40.75 114.35,39.8 114.35,38.9 C114.35,36.2 113.25,34.1 110.3,34.1 C106.9,34.1 103.3,37.35 103.3,42.2 Z M106.95,39.8 C106.6,39.8 106.35,39.45 106.5,39.1 C107.2,37.3 108.6,36.25 109.95,36.25 C111.5,36.25 112.05,37.4 112.05,38.65 C112.05,38.9 112.05,39.15 112,39.35 C111.95,39.6 111.75,39.75 111.5,39.75 L106.95,39.75 L106.95,39.8 Z M92.85,42.4 C92.85,45.75 94.9,47.7 97.7,47.7 C99.35,47.7 100.55,47.1 101.5,46.5 C101.75,46.35 101.8,46.05 101.65,45.8 L101,44.85 C100.85,44.6 100.55,44.55 100.3,44.7 C99.75,45.1 99.1,45.4 98.3,45.4 C96.6,45.4 95.7,44.25 95.7,42.3 C95.7,39.05 97.7,36.35 100,36.35 C100.7,36.35 101.15,36.55 101.6,37 C101.8,37.2 102.15,37.2 102.3,37 L103.2,36 C103.4,35.8 103.35,35.5 103.2,35.3 C102.5,34.6 101.5,34.05 100.15,34.05 C96.2,34.1 92.85,37.75 92.85,42.4 Z M20.6,47.7 C24.1,47.7 27.65,44.3 27.65,39.35 C27.65,36.1 25.75,34.05 22.85,34.05 C19.35,34.05 15.8,37.4 15.8,42.4 C15.85,45.65 17.75,47.7 20.6,47.7 Z M22.55,36.5 C24.05,36.5 24.8,37.65 24.8,39.6 C24.8,43 22.9,45.65 20.85,45.65 C19.35,45.65 18.55,44.5 18.55,42.5 C18.55,39.15 20.5,36.5 22.55,36.5 Z M26.7,21.7 C30.2,21.7 33.75,18.3 33.75,13.35 C33.75,10.1 31.85,8.05 28.95,8.05 C25.45,8.05 21.9,11.4 21.9,16.4 C21.9,19.6 23.8,21.7 26.7,21.7 Z M28.65,10.45 C30.15,10.45 30.9,11.6 30.9,13.55 C30.9,16.95 29,19.6 26.95,19.6 C25.45,19.6 24.65,18.45 24.65,16.45 C24.65,13.15 26.6,10.45 28.65,10.45 Z" id="_x2D_copy"></path>
            </g>
        </g>
    </g>
</svg>